<svg width="60" height="57" viewBox="0 0 60 57" fill="none" xmlns="http://www.w3.org/2000/svg">
<path fill-rule="evenodd" clip-rule="evenodd" d="M30 56.6038C46.5686 56.6038 60 43.9326 60 28.3019C60 12.6712 46.5686 0 30 0C13.4314 0 0 12.6712 0 28.3019C0 43.9326 13.4314 56.6038 30 56.6038ZM29.6547 33.0392L48.7277 15.2239C48.3763 15.0796 47.9916 15 47.5883 15H12C11.4465 15 10.928 15.1499 10.4829 15.4113L29.6547 33.0392ZM29.6145 34.9156L30.5121 33.9777L30.5358 33.9778L50.5883 18.384V40C50.5883 41.6569 49.2451 43 47.5883 43H12C10.3431 43 9 41.6569 9 40V18.9073L29.6145 34.9156Z" fill="white"/>
</svg>
