<svg width="60" height="60" viewBox="0 0 60 60" fill="none" xmlns="http://www.w3.org/2000/svg">
<path fill-rule="evenodd" clip-rule="evenodd" d="M30 56.6038C46.5685 56.6038 60 43.9326 60 28.3019C60 12.6712 46.5685 0 30 0C13.4315 0 0 12.6712 0 28.3019C0 43.9326 13.4315 56.6038 30 56.6038ZM26.1973 27.7048V46.3962H32.4277V27.7048H37.0469V23.1501H32.4277V21.281C32.4277 19.0896 33.5951 17.9939 35.9297 17.9939C36.6745 17.9939 37.3047 18.0583 37.8203 18.1873L37.8848 13.3748C36.6387 13.0883 35.5859 12.9451 34.7266 12.9451C32.0339 12.9451 29.9355 13.6684 28.4316 15.115C26.9421 16.5473 26.1973 18.5668 26.1973 21.1736V23.1501H22.7383V27.7048H26.1973Z" fill="white"/>
</svg>
