<svg width="60" height="60" viewBox="0 0 60 60" fill="none" xmlns="http://www.w3.org/2000/svg">
<path fill-rule="evenodd" clip-rule="evenodd" d="M30 60C46.5685 60 60 46.5685 60 30C60 13.4315 46.5685 0 30 0C13.4315 0 0 13.4315 0 30C0 46.5685 13.4315 60 30 60ZM17.3438 22.9805V42H22.4414V22.9805H17.3438ZM17.8008 16.1777C17.2969 16.6699 17.0449 17.2969 17.0449 18.0586C17.0449 18.832 17.3027 19.4648 17.8184 19.957C18.3457 20.4492 19.0371 20.6953 19.8926 20.6953C20.748 20.6953 21.4336 20.4492 21.9492 19.957C22.4766 19.4648 22.7402 18.832 22.7402 18.0586C22.7402 17.2969 22.4824 16.6699 21.9668 16.1777C21.4512 15.6855 20.7598 15.4395 19.8926 15.4395C19.0137 15.4395 18.3164 15.6855 17.8008 16.1777ZM31.4766 25.1777L31.3184 22.9805H26.5371V42H31.6172V28.5879C32.332 27.3691 33.4043 26.7598 34.834 26.7598C35.9238 26.7598 36.7031 27.0059 37.1719 27.498C37.6406 27.9785 37.875 28.7578 37.875 29.8359V42H42.9551V29.7129C42.9316 27.3574 42.4277 25.5879 41.4434 24.4043C40.459 23.2207 38.959 22.6289 36.9434 22.6289C34.6582 22.6289 32.8359 23.4785 31.4766 25.1777Z" fill="white"/>
</svg>
