<svg width="200" height="100" viewBox="0 0 200 100" fill="none" xmlns="http://www.w3.org/2000/svg">
<path d="M26.5196 12.5348H31.4636V83.8148H23.6876V22.3268L6.16763 34.8548V27.1748L26.5196 12.5348ZM70.0781 84.7268C62.2381 84.7268 56.1901 81.8308 51.9341 76.0388C47.7101 70.2468 45.5981 60.9988 45.5981 48.2948C45.5981 35.5588 47.6941 26.3108 51.8861 20.5508C56.1101 14.7588 62.1741 11.8628 70.0781 11.8628C77.9821 11.8628 84.0301 14.7588 88.2221 20.5508C92.4141 26.3108 94.5101 35.5588 94.5101 48.2948C94.5101 60.9988 92.3981 70.2468 88.1741 76.0388C83.9501 81.8308 77.9181 84.7268 70.0781 84.7268ZM70.0781 78.0068C73.6301 78.0068 76.6221 77.0948 79.0541 75.2708C81.4861 73.4468 83.3581 70.3588 84.6701 66.0068C86.0141 61.6548 86.6861 55.7988 86.6861 48.4388C86.6861 40.9828 86.0141 35.0628 84.6701 30.6788C83.3581 26.2948 81.4861 23.1908 79.0541 21.3668C76.6221 19.5108 73.6301 18.5828 70.0781 18.5828C66.4941 18.5828 63.4861 19.4948 61.0541 21.3188C58.6221 23.1428 56.7341 26.2308 55.3901 30.5828C54.0781 34.9348 53.4221 40.7908 53.4221 48.1508C53.4221 55.6068 54.0781 61.5268 55.3901 65.9108C56.7341 70.2948 58.6221 73.4148 61.0541 75.2708C63.4861 77.0948 66.4941 78.0068 70.0781 78.0068Z" fill="#1160BC"/>
<path d="M122.329 43.8889L112.843 31.5409H108.901V43.8889H105.985V17.2489H108.901V28.9129H112.897L121.663 17.2489H124.867L115.111 30.1729L125.623 43.8889H122.329ZM127.915 43.8889V24.3589H130.795V43.8889H127.915ZM129.355 20.1289C128.707 20.1289 128.209 19.9729 127.861 19.6609C127.513 19.3369 127.339 18.8869 127.339 18.3109C127.339 17.7349 127.513 17.2849 127.861 16.9609C128.221 16.6369 128.719 16.4749 129.355 16.4749C129.991 16.4749 130.483 16.6369 130.831 16.9609C131.179 17.2849 131.353 17.7349 131.353 18.3109C131.353 18.8869 131.179 19.3369 130.831 19.6609C130.483 19.9729 129.991 20.1289 129.355 20.1289ZM142.907 44.2309C141.419 44.2309 140.099 43.9009 138.947 43.2409C137.795 42.5809 136.883 41.5309 136.211 40.0909C135.551 38.6389 135.221 36.7849 135.221 34.5289C135.221 31.0369 136.049 28.4209 137.705 26.6809C139.373 24.9289 141.833 24.0529 145.085 24.0529C146.021 24.0529 147.077 24.1429 148.253 24.3229V14.8009H151.133V43.8889H148.667L148.469 41.7649H148.289C147.677 42.5209 146.909 43.1209 145.985 43.5649C145.061 44.0089 144.035 44.2309 142.907 44.2309ZM143.573 41.7469C144.485 41.7469 145.355 41.5489 146.183 41.1529C147.011 40.7449 147.701 40.1389 148.253 39.3349V26.7529C147.797 26.6569 147.281 26.5789 146.705 26.5189C146.129 26.4469 145.571 26.4109 145.031 26.4109C142.715 26.4109 140.987 27.0349 139.847 28.2829C138.719 29.5189 138.155 31.5109 138.155 34.2589C138.155 36.9829 138.623 38.9149 139.559 40.0549C140.507 41.1829 141.845 41.7469 143.573 41.7469ZM161.23 44.2309C159.25 44.2309 157.444 43.9669 155.812 43.4389V41.1169C157.6 41.6569 159.406 41.9269 161.23 41.9269C164.446 41.9269 166.054 40.8349 166.054 38.6509C166.054 37.7629 165.82 37.0849 165.352 36.6169C164.896 36.1489 164.128 35.7949 163.048 35.5549L160.402 35.0149C158.662 34.6429 157.402 34.0249 156.622 33.1609C155.842 32.2969 155.452 31.1449 155.452 29.7049C155.452 28.5889 155.734 27.6049 156.298 26.7529C156.862 25.9009 157.72 25.2409 158.872 24.7729C160.036 24.2929 161.47 24.0529 163.174 24.0529C164.746 24.0529 166.282 24.2449 167.782 24.6289V26.9689C166.99 26.7529 166.234 26.5969 165.514 26.5009C164.794 26.4049 164.038 26.3569 163.246 26.3569C161.482 26.3569 160.198 26.6569 159.394 27.2569C158.602 27.8449 158.206 28.6369 158.206 29.6329C158.206 30.4369 158.428 31.0849 158.872 31.5769C159.316 32.0689 160.066 32.4289 161.122 32.6569L163.768 33.1969C165.544 33.5689 166.828 34.1809 167.62 35.0329C168.424 35.8849 168.826 37.0429 168.826 38.5069C168.826 40.3069 168.172 41.7109 166.864 42.7189C165.556 43.7269 163.678 44.2309 161.23 44.2309Z" fill="black"/>
<path d="M106.233 80V53.36H109.149V77.444H122.253V80H106.233ZM130.989 60.164C132.693 60.164 134.091 60.386 135.183 60.83C136.275 61.274 137.097 62.012 137.649 63.044C138.201 64.076 138.477 65.462 138.477 67.202V80H136.065L135.849 77.822H135.651C135.027 78.614 134.217 79.232 133.221 79.676C132.237 80.108 131.169 80.324 130.017 80.324C128.805 80.324 127.755 80.114 126.867 79.694C125.979 79.262 125.295 78.644 124.815 77.84C124.347 77.036 124.113 76.088 124.113 74.996C124.113 73.268 124.677 71.936 125.805 71C126.933 70.052 128.727 69.458 131.187 69.218L135.651 68.732V67.058C135.651 65.894 135.465 64.982 135.093 64.322C134.733 63.662 134.187 63.2 133.455 62.936C132.735 62.66 131.787 62.522 130.611 62.522C129.807 62.522 128.943 62.594 128.019 62.738C127.107 62.882 126.213 63.104 125.337 63.404V61.028C126.141 60.752 127.053 60.542 128.073 60.398C129.093 60.242 130.065 60.164 130.989 60.164ZM130.737 78.092C131.661 78.092 132.549 77.9 133.401 77.516C134.253 77.132 135.003 76.532 135.651 75.716V70.676L131.385 71.144C129.861 71.3 128.751 71.672 128.055 72.26C127.371 72.848 127.029 73.67 127.029 74.726C127.029 75.83 127.341 76.67 127.965 77.246C128.589 77.81 129.513 78.092 130.737 78.092ZM151.784 77.84C152.468 77.84 153.266 77.744 154.178 77.552V79.982C153.158 80.222 152.156 80.342 151.172 80.342C146.96 80.342 144.854 78.182 144.854 73.862V62.846H141.164V60.47H144.854L145.322 53.36H147.734V60.47H153.872V62.846H147.734V73.412C147.734 75.008 148.058 76.148 148.706 76.832C149.366 77.504 150.392 77.84 151.784 77.84ZM171.356 71.198H158.846C158.894 72.842 159.164 74.162 159.656 75.158C160.16 76.154 160.892 76.874 161.852 77.318C162.812 77.762 164.036 77.984 165.524 77.984C166.94 77.984 168.56 77.72 170.384 77.192V79.55C168.608 80.078 166.874 80.342 165.182 80.342C162.074 80.342 159.752 79.538 158.216 77.93C156.692 76.322 155.93 73.754 155.93 70.226C155.93 66.878 156.62 64.364 158 62.684C159.392 61.004 161.336 60.164 163.832 60.164C166.268 60.164 168.128 61.004 169.412 62.684C170.708 64.352 171.356 66.89 171.356 70.298V71.198ZM163.796 62.27C162.224 62.27 161.018 62.81 160.178 63.89C159.338 64.97 158.894 66.746 158.846 69.218H168.584C168.536 66.734 168.11 64.958 167.306 63.89C166.514 62.81 165.344 62.27 163.796 62.27ZM175.484 60.47H177.896L178.13 63.08H178.31C178.958 62.18 179.786 61.49 180.794 61.01C181.814 60.518 182.888 60.272 184.016 60.272C184.544 60.272 185.066 60.32 185.582 60.416V63.098C185.066 63.014 184.502 62.972 183.89 62.972C182.87 62.972 181.844 63.212 180.812 63.692C179.792 64.16 178.976 64.838 178.364 65.726V80H175.484V60.47Z" fill="black"/>
</svg>
