<svg width="100" height="50" viewBox="0 0 100 50" fill="none" xmlns="http://www.w3.org/2000/svg">
<path d="M15.7598 7.36H18.2318V43H14.3438V12.256L5.58381 18.52V14.68L15.7598 7.36ZM37.5391 43.456C33.6191 43.456 30.5951 42.008 28.4671 39.112C26.3551 36.216 25.2991 31.592 25.2991 25.24C25.2991 18.872 26.3471 14.248 28.4431 11.368C30.5551 8.472 33.5871 7.024 37.5391 7.024C41.4911 7.024 44.5151 8.472 46.6111 11.368C48.7071 14.248 49.7551 18.872 49.7551 25.24C49.7551 31.592 48.6991 36.216 46.5871 39.112C44.4751 42.008 41.4591 43.456 37.5391 43.456ZM37.5391 40.096C39.3151 40.096 40.8111 39.64 42.0271 38.728C43.2431 37.816 44.1791 36.272 44.8351 34.096C45.5071 31.92 45.8431 28.992 45.8431 25.312C45.8431 21.584 45.5071 18.624 44.8351 16.432C44.1791 14.24 43.2431 12.688 42.0271 11.776C40.8111 10.848 39.3151 10.384 37.5391 10.384C35.7471 10.384 34.2431 10.84 33.0271 11.752C31.8111 12.664 30.8671 14.208 30.1951 16.384C29.5391 18.56 29.2111 21.488 29.2111 25.168C29.2111 28.896 29.5391 31.856 30.1951 34.048C30.8671 36.24 31.8111 37.8 33.0271 38.728C34.2431 39.64 35.7471 40.096 37.5391 40.096Z" fill="#1160BC"/>
<path d="M62.6274 21L57.3574 14.14H55.1674V21H53.5474V6.2H55.1674V12.68H57.3874L62.2574 6.2H64.0374L58.6174 13.38L64.4574 21H62.6274ZM65.7307 21V10.15H67.3307V21H65.7307ZM66.5307 7.8C66.1707 7.8 65.894 7.71333 65.7007 7.54C65.5074 7.36 65.4107 7.11 65.4107 6.79C65.4107 6.47 65.5074 6.22 65.7007 6.04C65.9007 5.86 66.1774 5.77 66.5307 5.77C66.884 5.77 67.1574 5.86 67.3507 6.04C67.544 6.22 67.6407 6.47 67.6407 6.79C67.6407 7.11 67.544 7.36 67.3507 7.54C67.1574 7.71333 66.884 7.8 66.5307 7.8ZM74.0596 21.19C73.2329 21.19 72.4996 21.0067 71.8596 20.64C71.2196 20.2733 70.7129 19.69 70.3396 18.89C69.9729 18.0833 69.7896 17.0533 69.7896 15.8C69.7896 13.86 70.2496 12.4067 71.1696 11.44C72.0963 10.4667 73.4629 9.98 75.2696 9.98C75.7896 9.98 76.3763 10.03 77.0296 10.13V4.84H78.6296V21H77.2596L77.1496 19.82H77.0496C76.7096 20.24 76.2829 20.5733 75.7696 20.82C75.2563 21.0667 74.6863 21.19 74.0596 21.19ZM74.4296 19.81C74.9363 19.81 75.4196 19.7 75.8796 19.48C76.3396 19.2533 76.7229 18.9167 77.0296 18.47V11.48C76.7763 11.4267 76.4896 11.3833 76.1696 11.35C75.8496 11.31 75.5396 11.29 75.2396 11.29C73.9529 11.29 72.9929 11.6367 72.3596 12.33C71.7329 13.0167 71.4196 14.1233 71.4196 15.65C71.4196 17.1633 71.6796 18.2367 72.1996 18.87C72.7263 19.4967 73.4696 19.81 74.4296 19.81ZM84.2387 21.19C83.1387 21.19 82.1353 21.0433 81.2287 20.75V19.46C82.222 19.76 83.2253 19.91 84.2387 19.91C86.0253 19.91 86.9187 19.3033 86.9187 18.09C86.9187 17.5967 86.7887 17.22 86.5287 16.96C86.2753 16.7 85.8487 16.5033 85.2487 16.37L83.7787 16.07C82.812 15.8633 82.112 15.52 81.6787 15.04C81.2453 14.56 81.0287 13.92 81.0287 13.12C81.0287 12.5 81.1853 11.9533 81.4987 11.48C81.812 11.0067 82.2887 10.64 82.9287 10.38C83.5753 10.1133 84.372 9.98 85.3187 9.98C86.192 9.98 87.0453 10.0867 87.8787 10.3V11.6C87.4387 11.48 87.0187 11.3933 86.6187 11.34C86.2187 11.2867 85.7987 11.26 85.3587 11.26C84.3787 11.26 83.6653 11.4267 83.2187 11.76C82.7787 12.0867 82.5587 12.5267 82.5587 13.08C82.5587 13.5267 82.682 13.8867 82.9287 14.16C83.1753 14.4333 83.592 14.6333 84.1787 14.76L85.6487 15.06C86.6353 15.2667 87.3487 15.6067 87.7887 16.08C88.2353 16.5533 88.4587 17.1967 88.4587 18.01C88.4587 19.01 88.0953 19.79 87.3687 20.35C86.642 20.91 85.5987 21.19 84.2387 21.19Z" fill="black"/>
<path d="M53.4908 42V27.2H55.1108V40.58H62.3908V42H53.4908ZM67.2439 30.98C68.1906 30.98 68.9672 31.1033 69.5739 31.35C70.1806 31.5967 70.6372 32.0067 70.9439 32.58C71.2506 33.1533 71.4039 33.9233 71.4039 34.89V42H70.0639L69.9439 40.79H69.8339C69.4872 41.23 69.0372 41.5733 68.4839 41.82C67.9372 42.06 67.3439 42.18 66.7039 42.18C66.0306 42.18 65.4472 42.0633 64.9539 41.83C64.4606 41.59 64.0806 41.2467 63.8139 40.8C63.5539 40.3533 63.4239 39.8267 63.4239 39.22C63.4239 38.26 63.7372 37.52 64.3639 37C64.9906 36.4733 65.9872 36.1433 67.3539 36.01L69.8339 35.74V34.81C69.8339 34.1633 69.7306 33.6567 69.5239 33.29C69.3239 32.9233 69.0206 32.6667 68.6139 32.52C68.2139 32.3667 67.6872 32.29 67.0339 32.29C66.5872 32.29 66.1072 32.33 65.5939 32.41C65.0872 32.49 64.5906 32.6133 64.1039 32.78V31.46C64.5506 31.3067 65.0572 31.19 65.6239 31.11C66.1906 31.0233 66.7306 30.98 67.2439 30.98ZM67.1039 40.94C67.6172 40.94 68.1106 40.8333 68.5839 40.62C69.0572 40.4067 69.4739 40.0733 69.8339 39.62V36.82L67.4639 37.08C66.6172 37.1667 66.0006 37.3733 65.6139 37.7C65.2339 38.0267 65.0439 38.4833 65.0439 39.07C65.0439 39.6833 65.2172 40.15 65.5639 40.47C65.9106 40.7833 66.4239 40.94 67.1039 40.94ZM78.7969 40.8C79.1769 40.8 79.6202 40.7467 80.1269 40.64V41.99C79.5602 42.1233 79.0035 42.19 78.4569 42.19C76.1169 42.19 74.9469 40.99 74.9469 38.59V32.47H72.8969V31.15H74.9469L75.2069 27.2H76.5469V31.15H79.9569V32.47H76.5469V38.34C76.5469 39.2267 76.7269 39.86 77.0869 40.24C77.4535 40.6133 78.0235 40.8 78.7969 40.8ZM89.6702 37.11H82.7202C82.7468 38.0233 82.8968 38.7567 83.1702 39.31C83.4502 39.8633 83.8568 40.2633 84.3902 40.51C84.9235 40.7567 85.6035 40.88 86.4302 40.88C87.2168 40.88 88.1168 40.7333 89.1302 40.44V41.75C88.1435 42.0433 87.1802 42.19 86.2402 42.19C84.5135 42.19 83.2235 41.7433 82.3702 40.85C81.5235 39.9567 81.1002 38.53 81.1002 36.57C81.1002 34.71 81.4835 33.3133 82.2502 32.38C83.0235 31.4467 84.1035 30.98 85.4902 30.98C86.8435 30.98 87.8768 31.4467 88.5902 32.38C89.3102 33.3067 89.6702 34.7167 89.6702 36.61V37.11ZM85.4702 32.15C84.5968 32.15 83.9268 32.45 83.4602 33.05C82.9935 33.65 82.7468 34.6367 82.7202 36.01H88.1302C88.1035 34.63 87.8668 33.6433 87.4202 33.05C86.9802 32.45 86.3302 32.15 85.4702 32.15ZM91.9631 31.15H93.3031L93.4331 32.6H93.5331C93.8931 32.1 94.3531 31.7167 94.9131 31.45C95.4798 31.1767 96.0765 31.04 96.7031 31.04C96.9965 31.04 97.2865 31.0667 97.5731 31.12V32.61C97.2865 32.5633 96.9731 32.54 96.6331 32.54C96.0665 32.54 95.4965 32.6733 94.9231 32.94C94.3565 33.2 93.9031 33.5767 93.5631 34.07V42H91.9631V31.15Z" fill="black"/>
</svg>
